<?xml version="1.0" encoding="UTF-8"?>
<svg width="700pt" height="700pt" version="1.1" viewBox="0 0 700 700" xmlns="http://www.w3.org/2000/svg">
 <g>
  <path d="m315 52.5c-4.832 0-8.75 3.918-8.75 8.75v43.75h-17.5c-24.059 0-43.75 19.691-43.75 43.75v280c0 24.059 19.691 43.75 43.75 43.75h17.5v43.75c0 4.832 3.918 8.75 8.75 8.75h43.75c4.832 0 8.75-3.918 8.75-8.75v-455c0-4.832-3.918-8.75-8.75-8.75zm8.75 17.5h26.25v437.5h-26.25v-43.75c0-4.832-3.918-8.75-8.75-8.75h-26.25c-14.602 0-26.25-11.648-26.25-26.25v-280c0-14.602 11.648-26.25 26.25-26.25h26.25c4.832 0 8.75-3.918 8.75-8.75z"/>
  <path d="m253.75 139.98v17.5h61.25v-17.5z" fill-rule="evenodd"/>
  <path d="m253.75 174.98v17.5h61.25v-17.5z" fill-rule="evenodd"/>
  <path d="m253.75 209.98v17.5h61.25v-17.5z" fill-rule="evenodd"/>
  <path d="m253.75 244.98v17.5h61.25v-17.5z" fill-rule="evenodd"/>
  <path d="m253.75 279.98v17.5h61.25v-17.5z" fill-rule="evenodd"/>
  <path d="m253.75 314.98v17.5h61.25v-17.5z" fill-rule="evenodd"/>
  <path d="m253.75 349.98v17.5h61.25v-17.5z" fill-rule="evenodd"/>
  <path d="m253.75 384.98v17.5h61.25v-17.5z" fill-rule="evenodd"/>
  <path d="m253.75 419.98v17.5h61.25v-17.5z" fill-rule="evenodd"/>
  <path d="m533.75 52.5c4.832 0 8.75 3.918 8.75 8.75v43.75h17.5c24.059 0 43.75 19.691 43.75 43.75v280c0 24.059-19.691 43.75-43.75 43.75h-17.5v43.75c0 4.832-3.918 8.75-8.75 8.75h-43.75c-4.832 0-8.75-3.918-8.75-8.75v-455c0-4.832 3.918-8.75 8.75-8.75zm-8.75 17.5h-26.25v437.5h26.25v-43.75c0-4.832 3.918-8.75 8.75-8.75h26.25c14.602 0 26.25-11.648 26.25-26.25v-280c0-14.602-11.648-26.25-26.25-26.25h-26.25c-4.832 0-8.75-3.918-8.75-8.75z"/>
  <path d="m595 139.98v17.5h-61.25v-17.5z" fill-rule="evenodd"/>
  <path d="m595 174.98v17.5h-61.25v-17.5z" fill-rule="evenodd"/>
  <path d="m595 209.98v17.5h-61.25v-17.5z" fill-rule="evenodd"/>
  <path d="m595 244.98v17.5h-61.25v-17.5z" fill-rule="evenodd"/>
  <path d="m595 279.98v17.5h-61.25v-17.5z" fill-rule="evenodd"/>
  <path d="m595 314.98v17.5h-61.25v-17.5z" fill-rule="evenodd"/>
  <path d="m595 349.98v17.5h-61.25v-17.5z" fill-rule="evenodd"/>
  <path d="m595 384.98v17.5h-61.25v-17.5z" fill-rule="evenodd"/>
  <path d="m595 419.98v17.5h-61.25v-17.5z" fill-rule="evenodd"/>
  <path d="m201.11 174.88c-4.8164 0.074219-8.668 4.0312-8.6133 8.8516v210c-0.03125 2.3398 0.875 4.5977 2.5195 6.2656s3.8906 2.6094 6.2305 2.6094c2.3438 0 4.5859-0.94141 6.2305-2.6094s2.5547-3.9258 2.5195-6.2656v-210c0.027344-2.3633-0.90234-4.6367-2.5742-6.3008-1.6719-1.668-3.9492-2.5859-6.3125-2.5508z" fill-rule="evenodd"/>
  <path d="m96.113 174.88c-4.8164 0.074219-8.668 4.0312-8.6133 8.8516v210c-0.03125 2.3398 0.875 4.5977 2.5195 6.2656s3.8906 2.6094 6.2305 2.6094c2.3438 0 4.5859-0.94141 6.2305-2.6094s2.5547-3.9258 2.5195-6.2656v-210c0.027344-2.3633-0.90234-4.6367-2.5742-6.3047-1.6719-1.6641-3.9492-2.5859-6.3125-2.5469z" fill-rule="evenodd"/>
  <path d="m96.25 192.48v17.5h105v-17.5z" fill-rule="evenodd"/>
  <path d="m157.5 201.23v175h17.5v-175z" fill-rule="evenodd"/>
  <path d="m122.5 201.23v175h17.5v-175z" fill-rule="evenodd"/>
  <path d="m96.25 367.48v17.5h105v-17.5z" fill-rule="evenodd"/>
  <path d="m201.25 244.98v17.5h70v-17.5z" fill-rule="evenodd"/>
  <path d="m201.25 314.98v17.5h70v-17.5z" fill-rule="evenodd"/>
  <path d="m358.75 87.484v17.5h131.25v-17.5z" fill-rule="evenodd"/>
  <path d="m358.75 472.48v17.5h131.25v-17.5z" fill-rule="evenodd"/>
  <path d="m402.5 122.48c-9.543 0-17.5 7.957-17.5 17.5v17.5c0 9.543 7.957 17.5 17.5 17.5h43.75c9.543 0 17.5-7.957 17.5-17.5v-17.5c0-9.543-7.957-17.5-17.5-17.5zm0 17.5h43.75v17.5h-43.75z"/>
  <path d="m402.5 192.48c-9.543 0-17.5 7.957-17.5 17.5v17.5c0 9.543 7.957 17.5 17.5 17.5h43.75c9.543 0 17.5-7.957 17.5-17.5v-17.5c0-9.543-7.957-17.5-17.5-17.5zm0 17.5h43.75v17.5h-43.75z"/>
  <path d="m402.5 262.48c-9.543 0-17.5 7.957-17.5 17.5v17.5c0 9.543 7.957 17.5 17.5 17.5h43.75c9.543 0 17.5-7.957 17.5-17.5v-17.5c0-9.543-7.957-17.5-17.5-17.5zm0 17.5h43.75v17.5h-43.75z"/>
  <path d="m402.5 332.48c-9.543 0-17.5 7.957-17.5 17.5v17.5c0 9.543 7.957 17.5 17.5 17.5h43.75c9.543 0 17.5-7.957 17.5-17.5v-17.5c0-9.543-7.957-17.5-17.5-17.5zm0 17.5h43.75v17.5h-43.75z"/>
  <path d="m402.5 402.48c-9.543 0-17.5 7.957-17.5 17.5v17.5c0 9.543 7.957 17.5 17.5 17.5h43.75c9.543 0 17.5-7.957 17.5-17.5v-17.5c0-9.543-7.957-17.5-17.5-17.5zm0 17.5h43.75v17.5h-43.75z"/>
  <path d="m533.75 69.984v17.5h70v-17.5z" fill-rule="evenodd"/>
 </g>
</svg>
